<svg width="159" height="20" viewBox="0 0 159 20" fill="none" xmlns="http://www.w3.org/2000/svg">
<path d="M1.71973 2.53906V7.90039H10.7188C11.6823 7.90039 12.4163 7.66602 12.9209 7.19727C13.4255 6.72852 13.6777 5.94889 13.6777 4.8584C13.6777 4.18132 13.4189 3.6263 12.9014 3.19336C12.3838 2.75716 11.6904 2.53906 10.8213 2.53906H1.71973ZM1.71973 9.30176V15.0195H0.279297V1.1377H10.2793C11.4089 1.1377 12.3333 1.30534 13.0527 1.64062C13.7754 1.97266 14.2995 2.43815 14.625 3.03711C14.9538 3.63281 15.1182 4.3278 15.1182 5.12207C15.1182 5.77637 15.027 6.3151 14.8447 6.73828C14.6657 7.16146 14.4427 7.49512 14.1758 7.73926C13.9089 7.98014 13.5703 8.22103 13.1602 8.46191C13.6517 8.56934 14.0635 8.90137 14.3955 9.45801C14.7308 10.0146 14.8984 10.7812 14.8984 11.7578V15H13.458V11.6016C13.458 10.752 13.2855 10.1562 12.9404 9.81445C12.5954 9.47266 12.042 9.30176 11.2803 9.30176H1.71973ZM28.3652 8.95996C28.3652 8.40658 28.2594 7.92969 28.0479 7.5293C27.8363 7.12565 27.5303 6.81641 27.1299 6.60156C26.7295 6.38672 26.2559 6.2793 25.709 6.2793H21.1875C20.6895 6.2793 20.2484 6.38997 19.8643 6.61133C19.4801 6.83268 19.1807 7.14518 18.9658 7.54883C18.7542 7.95247 18.6484 8.42285 18.6484 8.95996H28.3652ZM26.2852 15.0391H21.4463C20.0205 15.0391 18.9577 14.7266 18.2578 14.1016C17.5579 13.4733 17.208 12.5456 17.208 11.3184V8.7207C17.208 8.10221 17.3724 7.51302 17.7012 6.95312C18.0332 6.39323 18.5182 5.94076 19.1562 5.5957C19.7943 5.25065 20.5446 5.07812 21.4072 5.07812H25.5674C26.9215 5.07812 27.9665 5.41178 28.7021 6.0791C29.4378 6.74642 29.8057 7.57324 29.8057 8.55957V10.1611H18.6484V11.1182C18.6484 12.9313 19.5615 13.8379 21.3877 13.8379H26.085C26.8402 13.8379 27.4082 13.6654 27.7891 13.3203C28.1732 12.972 28.3652 12.5456 28.3652 12.041V11.8408H29.8057V12.041C29.8057 12.5098 29.6934 12.9736 29.4688 13.4326C29.2441 13.8883 28.8682 14.2708 28.3408 14.5801C27.8135 14.8861 27.1283 15.0391 26.2852 15.0391ZM31.7393 11.2793C31.7393 10.5664 31.9932 10.0016 32.501 9.58496C33.0088 9.16829 33.7803 8.95996 34.8154 8.95996H40.5771C41.2607 8.95996 41.7246 9.05762 41.9688 9.25293C42.2161 9.44824 42.3529 9.611 42.3789 9.74121V8.37891C42.3789 7.77344 42.182 7.27865 41.7881 6.89453C41.3942 6.51042 40.7904 6.31836 39.9766 6.31836H36.1582C35.1361 6.31836 34.4736 6.47786 34.1709 6.79688C33.8682 7.11589 33.7168 7.38281 33.7168 7.59766V7.95898H32.2373V7.59766H32.1982C32.1982 7.39583 32.2715 7.10775 32.418 6.7334C32.5677 6.35579 32.9095 5.99284 33.4434 5.64453C33.9772 5.29622 34.7617 5.12207 35.7969 5.12207H40.1377C42.6182 5.12207 43.8584 6.28092 43.8584 8.59863V15H42.418V14.1992C42.3236 14.3327 42.1299 14.5003 41.8369 14.7021C41.5472 14.9007 41.1533 15 40.6553 15H35.0596C32.846 15 31.7393 14.1602 31.7393 12.4805V11.2793ZM35.3379 10.1611C34.485 10.1611 33.9121 10.2767 33.6191 10.5078C33.3262 10.7357 33.1797 11.1003 33.1797 11.6016V12.3193C33.1797 12.7946 33.3376 13.1543 33.6533 13.3984C33.9691 13.6393 34.5306 13.7598 35.3379 13.7598H40.2158C40.9743 13.7598 41.5244 13.6149 41.8662 13.3252C42.208 13.0355 42.3789 12.5798 42.3789 11.958C42.3789 10.7601 41.6579 10.1611 40.2158 10.1611H35.3379ZM54.0342 15.0391H50.1572C48.7933 15.0195 47.7565 14.6842 47.0469 14.0332C46.3405 13.3822 45.9775 12.4105 45.958 11.1182C45.958 10.9196 45.9499 10.7145 45.9336 10.5029C45.9206 10.2913 45.9141 10.1367 45.9141 10.0391C45.9141 9.94466 45.9206 9.79004 45.9336 9.5752C45.9499 9.36035 45.958 9.15527 45.958 8.95996C45.9743 8.18848 46.1338 7.51302 46.4365 6.93359C46.7393 6.35417 47.2031 5.90007 47.8281 5.57129C48.4531 5.24251 49.2295 5.07812 50.1572 5.07812H54.0342C54.9424 5.07812 55.6195 5.2181 56.0654 5.49805C56.5114 5.77799 56.7946 6.01237 56.915 6.20117V1.11816H58.3555V15H56.915V14.0381C56.736 14.2041 56.3991 14.4124 55.9043 14.6631C55.4095 14.9137 54.7861 15.0391 54.0342 15.0391ZM56.9541 11.1182V8.95996C56.9346 8.15592 56.6628 7.50814 56.1387 7.0166C55.6178 6.52507 54.8496 6.2793 53.834 6.2793H50.6357C49.5062 6.2793 48.6842 6.50553 48.1699 6.95801C47.6556 7.40723 47.3984 8.07454 47.3984 8.95996V11.1182C47.3984 12.0394 47.6621 12.7165 48.1895 13.1494C48.7168 13.5824 49.5322 13.7988 50.6357 13.7988H53.834C54.8496 13.7988 55.6178 13.5531 56.1387 13.0615C56.6628 12.57 56.9346 11.9222 56.9541 11.1182ZM59.6055 5.12207H61.1045L65.7041 13.5986H65.9873L69.625 5.12207H71.124L66.168 16.2988C65.8457 17.028 65.5283 17.5977 65.2158 18.0078C64.9033 18.418 64.5013 18.7256 64.0098 18.9307C63.5182 19.1357 62.877 19.2383 62.0859 19.2383H61.6074V18.042H62.4473C62.9746 18.042 63.4043 17.9248 63.7363 17.6904C64.0716 17.4593 64.3467 17.1484 64.5615 16.7578C64.7796 16.3672 65.0547 15.7812 65.3867 15H65.0254L59.6055 5.12207ZM72.4668 15V13.4424H74.0244V15H72.4668ZM76.0752 5.03906C76.0752 4.11133 76.2331 3.35938 76.5488 2.7832C76.8678 2.20703 77.3577 1.78548 78.0186 1.51855C78.6826 1.25163 79.542 1.11816 80.5967 1.11816H87.5938C89.1432 1.11816 90.3167 1.44531 91.1143 2.09961C91.915 2.75065 92.3154 3.73047 92.3154 5.03906H90.875C90.8587 4.49544 90.7383 4.03809 90.5137 3.66699C90.2923 3.2959 89.918 3.0127 89.3906 2.81738C88.8665 2.61882 88.1683 2.51953 87.2959 2.51953H80.6162C79.7796 2.51953 79.1351 2.61068 78.6826 2.79297C78.2334 2.97526 77.9258 3.24707 77.7598 3.6084C77.597 3.96647 77.5156 4.44336 77.5156 5.03906C77.5156 5.57617 77.6068 5.99447 77.7891 6.29395C77.9714 6.59342 78.3197 6.81315 78.834 6.95312C79.3483 7.08984 80.0954 7.1582 81.0752 7.1582H87.2764C88.484 7.1582 89.4671 7.28516 90.2256 7.53906C90.984 7.78971 91.5423 8.18197 91.9004 8.71582C92.2585 9.24967 92.4375 9.94466 92.4375 10.8008V11.0791C92.3984 12.0524 92.2227 12.8255 91.9102 13.3984C91.5977 13.9681 91.1159 14.3783 90.4648 14.6289C89.8171 14.8763 88.9544 15 87.877 15H80.7139C79.7829 15 78.9788 14.8551 78.3018 14.5654C77.6279 14.2725 77.1087 13.8298 76.7441 13.2373C76.3796 12.6416 76.1973 11.9092 76.1973 11.04H77.6377C77.654 11.5902 77.7695 12.0524 77.9844 12.4268C78.2025 12.7979 78.5736 13.0859 79.0977 13.291C79.625 13.4961 80.3249 13.5986 81.1973 13.5986H87.7549C88.8551 13.5986 89.6706 13.3952 90.2012 12.9883C90.7318 12.5781 90.9971 11.9287 90.9971 11.04C90.9971 10.4313 90.8978 9.94954 90.6992 9.59473C90.5039 9.23991 90.1654 8.97949 89.6836 8.81348C89.2018 8.64421 88.5264 8.55957 87.6572 8.55957H80.6748C79.7633 8.55957 79.0033 8.4847 78.3945 8.33496C77.7891 8.18522 77.3187 7.96549 76.9834 7.67578C76.6481 7.38607 76.4121 7.02799 76.2754 6.60156C76.1419 6.17513 76.0752 5.6543 76.0752 5.03906ZM105.592 8.95996C105.592 8.40658 105.486 7.92969 105.274 7.5293C105.063 7.12565 104.757 6.81641 104.356 6.60156C103.956 6.38672 103.482 6.2793 102.936 6.2793H98.4141C97.916 6.2793 97.4749 6.38997 97.0908 6.61133C96.7067 6.83268 96.4072 7.14518 96.1924 7.54883C95.9808 7.95247 95.875 8.42285 95.875 8.95996H105.592ZM103.512 15.0391H98.6729C97.2471 15.0391 96.1842 14.7266 95.4844 14.1016C94.7845 13.4733 94.4346 12.5456 94.4346 11.3184V8.7207C94.4346 8.10221 94.599 7.51302 94.9277 6.95312C95.2598 6.39323 95.7448 5.94076 96.3828 5.5957C97.0208 5.25065 97.7712 5.07812 98.6338 5.07812H102.794C104.148 5.07812 105.193 5.41178 105.929 6.0791C106.664 6.74642 107.032 7.57324 107.032 8.55957V10.1611H95.875V11.1182C95.875 12.9313 96.7881 13.8379 98.6143 13.8379H103.312C104.067 13.8379 104.635 13.6654 105.016 13.3203C105.4 12.972 105.592 12.5456 105.592 12.041V11.8408H107.032V12.041C107.032 12.5098 106.92 12.9736 106.695 13.4326C106.471 13.8883 106.095 14.2708 105.567 14.5801C105.04 14.8861 104.355 15.0391 103.512 15.0391ZM110.963 11.4795C110.963 12.2477 111.158 12.8271 111.549 13.2178C111.939 13.6051 112.451 13.7988 113.082 13.7988H115.006C115.842 13.7988 116.472 13.6686 116.896 13.4082C117.322 13.1478 117.597 12.8271 117.721 12.4463C117.844 12.0622 117.906 11.6195 117.906 11.1182V11.001H119.342V11.2793C119.342 12.2103 119.06 13.0632 118.497 13.8379C117.937 14.6126 116.819 15 115.143 15H113.082C111.959 15 111.085 14.6859 110.46 14.0576C109.835 13.4294 109.522 12.4967 109.522 11.2598V6.2793H108.282V5.07812H109.522V3.15918H110.963V5.07812H118.424V6.2793H110.963V11.4795ZM120.924 15V13.4424H122.481V15H120.924ZM135.655 15H129.532C128.572 15 127.766 14.904 127.115 14.7119C126.464 14.5166 125.942 14.222 125.548 13.8281C125.154 13.4342 124.869 12.946 124.693 12.3633C124.518 11.7773 124.425 11.0693 124.415 10.2393V6.04004C124.431 4.79655 124.605 3.80697 124.938 3.07129C125.273 2.33561 125.812 1.80013 126.554 1.46484C127.296 1.12956 128.289 0.961914 129.532 0.961914H135.655C137.341 0.961914 138.596 1.28743 139.42 1.93848C140.243 2.58952 140.655 3.58398 140.655 4.92188H139.215C139.195 4.08203 138.915 3.44564 138.375 3.0127C137.838 2.5765 136.923 2.3584 135.631 2.3584H129.513C128.546 2.3584 127.804 2.4707 127.286 2.69531C126.769 2.91667 126.404 3.28939 126.192 3.81348C125.984 4.33431 125.872 5.0765 125.855 6.04004V10.2393C125.872 11.1149 125.994 11.7936 126.222 12.2754C126.45 12.7572 126.824 13.099 127.345 13.3008C127.866 13.4993 128.588 13.5986 129.513 13.5986H135.631C136.562 13.5986 137.273 13.5156 137.765 13.3496C138.259 13.1803 138.618 12.8581 138.839 12.3828C139.06 11.9076 139.171 11.1995 139.171 10.2588V9.7998H132.354V8.39844H140.694V9.48242C140.694 10.6022 140.616 11.5104 140.46 12.207C140.304 12.9004 140.042 13.4505 139.674 13.8574C139.309 14.2643 138.803 14.5573 138.155 14.7363C137.511 14.9121 136.677 15 135.655 15ZM142.379 8.95996C142.398 7.76204 142.752 6.81641 143.438 6.12305C144.129 5.42643 145.216 5.07812 146.7 5.07812H150.66C151.692 5.07812 152.529 5.25228 153.17 5.60059C153.811 5.94889 154.269 6.41276 154.542 6.99219C154.819 7.56836 154.965 8.22428 154.981 8.95996V11.1182C154.965 11.8571 154.814 12.5195 154.527 13.1055C154.244 13.6914 153.78 14.1602 153.136 14.5117C152.494 14.8633 151.669 15.0391 150.66 15.0391H146.7C143.858 15.0391 142.418 13.7321 142.379 11.1182C142.379 10.9587 142.372 10.7633 142.359 10.5322C142.346 10.3011 142.34 10.1367 142.34 10.0391C142.34 9.94466 142.346 9.78027 142.359 9.5459C142.372 9.31152 142.379 9.11621 142.379 8.95996ZM143.819 11.1182C143.819 12.9313 144.812 13.8379 146.798 13.8379H150.558C152.547 13.8379 153.541 12.9313 153.541 11.1182V8.95996C153.541 8.09733 153.284 7.4349 152.77 6.97266C152.258 6.51042 151.521 6.2793 150.558 6.2793H146.798C146.134 6.2793 145.585 6.37044 145.152 6.55273C144.719 6.73503 144.392 7.02474 144.171 7.42188C143.95 7.81576 143.832 8.32845 143.819 8.95996V11.1182ZM158.497 11.6406H157.057V1.11816H158.497V11.6406ZM157.057 15V13.4424H158.497V15H157.057Z" fill="white"/>
</svg>
